<svg xmlns="http://www.w3.org/2000/svg" version="1.1" xmlns:xlink="http://www.w3.org/1999/xlink" xmlns:svgjs="http://svgjs.com/svgjs" width="512" height="512" x="0" y="0" viewBox="0 0 110 110" style="enable-background:new 0 0 512 512" xml:space="preserve" class=""><g><circle cx="55" cy="59" r="50" fill="#e7efff" data-original="#e7efff" class=""></circle><path fill="#4e6aff" d="M33 21H23a2 2 0 0 1-2-2v-6a4 4 0 0 1 4-4h6a4 4 0 0 1 4 4v6a2 2 0 0 1-2 2zm-8-4h6v-4h-6z" data-original="#4e6aff"></path><path fill="#323fd4" d="M100 38v42.81a50.052 50.052 0 0 1-38 27.7V76z" data-original="#323fd4"></path><path fill="#4e6aff" d="M62 76v32.51a50.483 50.483 0 0 1-7 .49 49.758 49.758 0 0 1-14-1.99V55z" data-original="#4e6aff"></path><path fill="#8fa2ff" d="M41 55v52.01a50.073 50.073 0 0 1-29.19-22.82z" data-original="#8fa2ff"></path><circle cx="4" cy="13" r="3" fill="#00c99f" data-original="#00c99f"></circle><circle cx="98" cy="4" r="3" fill="#ff4d69" data-original="#ff4d69"></circle><circle cx="106" cy="98" r="3" fill="#00c99f" data-original="#00c99f"></circle><circle cx="10" cy="106" r="3" fill="#ffa100" data-original="#ffa100"></circle><path fill="#a5bced" d="m105.92 35.67-2.5 10.84-.5 2.16A3.009 3.009 0 0 1 100 51a3.007 3.007 0 0 1-2.12-.88L95 47.24 64.12 78.12a3 3 0 0 1-4.24 0L41 59.24 13.44 86.8c-.57-.85-1.11-1.72-1.63-2.61s-1.03-1.81-1.5-2.74l28.57-28.57a3 3 0 0 1 4.24 0L62 71.76 90.76 43l-2.88-2.88a3 3 0 0 1-.76-2.95 2.969 2.969 0 0 1 2.21-2.09l8.46-1.95 4.54-1.05a2.993 2.993 0 0 1 3.59 3.59z" data-original="#a5bced"></path><circle cx="41" cy="55" r="7" fill="#7f96d1" data-original="#7f96d1"></circle><circle cx="62" cy="76" r="7" fill="#7f96d1" data-original="#7f96d1"></circle><path fill="#4e6aff" d="M13 24h30v16a2 2 0 0 1-2 2H15a2 2 0 0 1-2-2V24z" data-original="#4e6aff"></path><path fill="#8fa2ff" d="M14 16h28a2 2 0 0 1 2 2v7a5 5 0 0 1-5 5H17a5 5 0 0 1-5-5v-7a2 2 0 0 1 2-2z" data-original="#8fa2ff"></path><rect width="8" height="6" x="24" y="27" fill="#ffa100" rx="2" data-original="#ffa100"></rect><path fill="#ffffff" d="M28 23a2 2 0 0 1 2 2v2h-4v-2a2 2 0 0 1 2-2zM26 33h4v2a2 2 0 0 1-2 2 2 2 0 0 1-2-2v-2z" data-original="#ffffff"></path><g fill="#a5bced"><rect width="22" height="4" x="48" y="16" rx="2" fill="#a5bced" data-original="#a5bced"></rect><rect width="12" height="4" x="48" y="24" rx="2" fill="#a5bced" data-original="#a5bced"></rect></g></g></svg>