<svg xmlns="http://www.w3.org/2000/svg" version="1.1" xmlns:xlink="http://www.w3.org/1999/xlink" xmlns:svgjs="http://svgjs.com/svgjs" width="512" height="512" x="0" y="0" viewBox="0 0 110 110" style="enable-background:new 0 0 512 512" xml:space="preserve" class=""><g><g data-name="19. Puzzle"><circle cx="51" cy="59" r="50" fill="#e7efff" data-original="#e7efff" class=""></circle><circle cx="34" cy="4" r="3" fill="#00c99f" data-original="#00c99f"></circle><circle cx="4" cy="24" r="3" fill="#ffa100" data-original="#ffa100" class=""></circle><circle cx="106" cy="57" r="3" fill="#ff4d69" data-original="#ff4d69"></circle><circle cx="91" cy="103" r="3" fill="#00c99f" data-original="#00c99f"></circle><path fill="#323fd4" d="M47 52a8 8 0 0 1-8 8v11H2.45a50 50 0 0 1 5.84-38H37a2 2 0 0 1 2 2v9a8 8 0 0 1 8 8z" data-original="#323fd4" class=""></path><path fill="#8fa2ff" d="M99 13v38a2 2 0 0 1-2 2h-9a10 10 0 0 1-20 0h-9a2 2 0 0 1-2-2v-9a10 10 0 0 0 0-20v-9a2 2 0 0 1 2-2h38a2 2 0 0 1 2 2z" data-original="#8fa2ff" class=""></path><path fill="#4e6aff" d="M39 71v36.54A50.06 50.06 0 0 1 2.45 71H12a8 8 0 0 1 16 0z" data-original="#4e6aff"></path><path fill="#323fd4" d="M77 73v28.71a50 50 0 0 1-38 5.83V98a8 8 0 0 1 0-16V71h11a8 8 0 0 0 16 0h9a2 2 0 0 1 2 2z" data-original="#323fd4" class=""></path><g fill="#ffa100"><path d="M44 30a1 1 0 0 1-1-.76l-1-4a1 1 0 0 1 2-.48l1 4A1 1 0 0 1 44 30zM48 30a1 1 0 0 1-1-1.24l1-4a1 1 0 0 1 1.94.48l-1 4A1 1 0 0 1 48 30zM83 68a1 1 0 0 1-.24-2l4-1a1 1 0 1 1 .48 2A41.56 41.56 0 0 1 83 68zM87 73a40.45 40.45 0 0 1-4.24-1 1 1 0 1 1 .48-2l4 1a1 1 0 0 1-.24 2z" fill="#ffa100" data-original="#ffa100" class=""></path></g></g></g></svg>