<svg xmlns="http://www.w3.org/2000/svg" version="1.1" xmlns:xlink="http://www.w3.org/1999/xlink" xmlns:svgjs="http://svgjs.com/svgjs" width="512" height="512" x="0" y="0" viewBox="0 0 110 110" style="enable-background:new 0 0 512 512" xml:space="preserve" class=""><g><circle cx="55" cy="59" r="50" fill="#e7efff" data-original="#e7efff" class=""></circle><path fill="#323fd4" d="M105 59a49.781 49.781 0 0 1-1.71 13H57V54.08a9.995 9.995 0 0 1 6.67-9.43L74 41h14l11.16 3.72a9.988 9.988 0 0 1 4.6 3.19A50.062 50.062 0 0 1 105 59z" data-original="#323fd4"></path><path fill="#7f96d1" d="M81 3a17 17 0 0 1 17 17v9H64v-9A17 17 0 0 1 81 3zM74 41h14v3a7 7 0 0 1-7 7 7 7 0 0 1-7-7v-3z" data-original="#7f96d1" class=""></path><path fill="#a5bced" d="M94 20.3V32a13 13 0 0 1-13 13 13 13 0 0 1-13-13V20.3a3.3 3.3 0 0 1 3.3-3.3 3.31 3.31 0 0 1 1.34.284 20.58 20.58 0 0 0 16.72 0A3.31 3.31 0 0 1 90.7 17a3.3 3.3 0 0 1 3.3 3.3zM67 23h1v10h-1a5 5 0 0 1-5-5 5 5 0 0 1 5-5zM95 32h-1V22h1a5 5 0 0 1 5 5 5 5 0 0 1-5 5z" data-original="#a5bced"></path><path fill="#7f96d1" d="M28 2a18 18 0 0 1 18 18v30H10V20A18 18 0 0 1 28 2z" data-original="#7f96d1" class=""></path><circle cx="4" cy="16" r="3" fill="#00c99f" data-original="#00c99f"></circle><circle cx="96.915" cy="4" r="3" fill="#ffa100" data-original="#ffa100"></circle><path fill="#4e6aff" d="M86.41 97.89a49.956 49.956 0 0 1-62.82 0 9.9 9.9 0 0 1 5.36-4.11L47 88h16l18.05 5.78a9.9 9.9 0 0 1 5.36 4.11z" data-original="#4e6aff"></path><path fill="#323fd4" d="M53 54.21V72H6.71a50.263 50.263 0 0 1-.43-24.27 9.949 9.949 0 0 1 4.39-3.08L21 41h14l11.16 3.72A9.991 9.991 0 0 1 53 54.21z" data-original="#323fd4"></path><circle cx="106" cy="96" r="3" fill="#00c99f" data-original="#00c99f"></circle><path fill="#7f96d1" d="M47 88h16v4a8 8 0 0 1-8 8 8 8 0 0 1-8-8v-4zM21 41h14v3a7 7 0 0 1-7 7 7 7 0 0 1-7-7v-3z" data-original="#7f96d1" class=""></path><circle cx="8" cy="106" r="3" fill="#ff4d69" data-original="#ff4d69"></circle><path fill="#4e6aff" d="M56 71H35V59a10 10 0 0 1 10-10h13.334a47.59 47.59 0 0 0 13.075-1.831 4.389 4.389 0 0 1 1.2-.169A4.386 4.386 0 0 1 77 51.386V63a8 8 0 0 1-8 8z" data-original="#4e6aff"></path><g fill="#a5bced"><path d="M55 94a15 15 0 0 1-15-15V68.854A4.854 4.854 0 0 1 44.854 64a4.853 4.853 0 0 1 2.171.512A14.079 14.079 0 0 0 53.326 66H68a2 2 0 0 1 2 2v11a15 15 0 0 1-15 15zM39 68h1v12h-1a5 5 0 0 1-5-5v-2a5 5 0 0 1 5-5zM71 80h-1V68h1a5 5 0 0 1 5 5v2a5 5 0 0 1-5 5zM28 45a13 13 0 0 1-13-13V20.236A3.236 3.236 0 0 1 18.236 17a3.231 3.231 0 0 1 1.447.342A15.717 15.717 0 0 0 26.708 19H39a2 2 0 0 1 2 2v11a13 13 0 0 1-13 13zM14 23h1v10h-1a5 5 0 0 1-5-5 5 5 0 0 1 5-5zM42 32h-1V22h1a5 5 0 0 1 5 5 5 5 0 0 1-5 5z" fill="#a5bced" data-original="#a5bced"></path></g><path fill="#7f96d1" d="M55 89.912a7.4 7.4 0 0 1-4.109-1.247 2 2 0 0 1 2.218-3.33 3.4 3.4 0 0 0 3.782 0 2 2 0 1 1 2.218 3.33A7.4 7.4 0 0 1 55 89.912zM28 40.912a7.4 7.4 0 0 1-4.109-1.247 2 2 0 0 1 2.218-3.33 3.4 3.4 0 0 0 3.782 0 2 2 0 1 1 2.218 3.33A7.4 7.4 0 0 1 28 40.912zM81 40.912a7.4 7.4 0 0 1-4.109-1.247 2 2 0 0 1 2.218-3.33 3.4 3.4 0 0 0 3.782 0 2 2 0 1 1 2.218 3.33A7.4 7.4 0 0 1 81 40.912z" data-original="#7f96d1" class=""></path></g></svg>