<svg xmlns="http://www.w3.org/2000/svg" version="1.1" xmlns:xlink="http://www.w3.org/1999/xlink" width="100" height="100" x="0" y="0" viewBox="0 0 512 512" style="enable-background:new 0 0 512 512" xml:space="preserve" class=""><g><path d="M156 260v-40c0-44.183 35.817-80 80-80h-60c-44.183 0-80 35.817-80 80v40c0 44.183 35.817 80 80 80h60c-44.183 0-80-35.817-80-80z" style="" fill="#cee1f2" data-original="#cee1f2" class=""></path><path d="M336 340H176c-44.183 0-80-35.817-80-80v-40c0-44.183 35.817-80 80-80h160c44.183 0 80 35.817 80 80v40c0 44.183-35.817 80-80 80zM176 140v-40c0-44.183 35.817-80 80-80s80 35.817 80 80v40M256 459.639l-38.042-12.36M256 459.639 232.489 492M256 459.639 279.511 492M256 459.639l38.042-12.36M256 459.639v-40M96 459.639l-38.042-12.36M96 459.639 72.489 492M96 459.639 119.511 492M96 459.639l38.042-12.36M96 459.639v-40M416 459.639l-38.042-12.36M416 459.639 392.489 492M416 459.639 439.511 492M416 459.639l38.042-12.36M416 459.639v-40" style="stroke-width:40;stroke-linecap:round;stroke-linejoin:round;stroke-miterlimit:10;" fill="none" stroke="#ffffff" stroke-width="40" stroke-linecap="round" stroke-linejoin="round" stroke-miterlimit="10" data-original="#0023c4" opacity="1" class=""></path><path d="M256 220v40" style="stroke-width:40;stroke-linecap:round;stroke-linejoin:round;stroke-miterlimit:10;" fill="none" stroke="#ffffff" stroke-width="40" stroke-linecap="round" stroke-linejoin="round" stroke-miterlimit="10" data-original="#ff5cf4" opacity="1"></path></g></svg>