<svg xmlns="http://www.w3.org/2000/svg" version="1.1" xmlns:xlink="http://www.w3.org/1999/xlink" width="100" height="100" x="0" y="0" viewBox="0 0 512 512" style="enable-background:new 0 0 512 512" xml:space="preserve" class=""><g><path d="M80 216V60c0-22.091 17.909-40 40-40H60c-22.091 0-40 17.909-40 40v156c0 22.091 17.909 40 40 40h60c-22.091 0-40-17.909-40-40z" style="" fill="#cee1f2" data-original="#cee1f2" class=""></path><path d="M20 329.147V332c0 44.183 35.817 80 80 80h312c44.183 0 80-35.817 80-80V136c0-44.183-35.817-80-80-80H256" style="stroke-width:40;stroke-linecap:round;stroke-linejoin:round;stroke-miterlimit:10;" fill="none" stroke="#ffffff" stroke-width="40" stroke-linecap="round" stroke-linejoin="round" stroke-miterlimit="10" data-original="#0023c4" opacity="1" class=""></path><path d="M412.121 292 256.004 135.883M412.121 235.431V292h-56.568M312.572 135.883h-56.568v56.568" style="stroke-width:40;stroke-linecap:round;stroke-linejoin:round;stroke-miterlimit:10;" fill="none" stroke="#ffffff" stroke-width="40" stroke-linecap="round" stroke-linejoin="round" stroke-miterlimit="10" data-original="#ff5cf4" opacity="1" class=""></path><path d="M256 492v-80M336 492H176M60 256h76c22.091 0 40-17.909 40-40V60c0-22.091-17.909-40-40-40H60c-22.091 0-40 17.909-40 40v156c0 22.091 17.909 40 40 40z" style="stroke-width:40;stroke-linecap:round;stroke-linejoin:round;stroke-miterlimit:10;" fill="none" stroke="#ffffff" stroke-width="40" stroke-linecap="round" stroke-linejoin="round" stroke-miterlimit="10" data-original="#0023c4" opacity="1" class=""></path></g></svg>