<svg xmlns="http://www.w3.org/2000/svg" version="1.1" xmlns:xlink="http://www.w3.org/1999/xlink" width="100" height="100" x="0" y="0" viewBox="0 0 512 512" style="enable-background:new 0 0 512 512" xml:space="preserve" class=""><g><path d="M80 432V160c0-33.137 26.863-60 60-60H80c-33.137 0-60 26.863-60 60v272c0 33.137 26.863 60 60 60h60c-33.137 0-60-26.863-60-60z" style="" fill="#cee1f2" data-original="#cee1f2" class=""></path><path d="M492 240v192c0 33.137-26.863 60-60 60H80c-33.137 0-60-26.863-60-60V160c0-33.137 26.863-60 60-60h76c33.137 0 60 26.863 60 60v20h216c33.137 0 60 26.863 60 60z" style="stroke-width:40;stroke-linecap:round;stroke-linejoin:round;stroke-miterlimit:10;" fill="none" stroke="#ffffff" stroke-width="40" stroke-linecap="round" stroke-linejoin="round" stroke-miterlimit="10" data-original="#0023c4" class="" opacity="1"></path><path d="m176 296-40 40 40 40M336 296l40 40-40 40M276 256l-40 160" style="stroke-width:40;stroke-linecap:round;stroke-linejoin:round;stroke-miterlimit:10;" fill="none" stroke="#ffffff" stroke-width="40" stroke-linecap="round" stroke-linejoin="round" stroke-miterlimit="10" data-original="#ff5cf4" class="" opacity="1"></path><path d="M492 113.522V80c0-33.137-26.863-60-60-60H80c-33.137 0-60 26.863-60 60v100M296 100h116" style="stroke-width:40;stroke-linecap:round;stroke-linejoin:round;stroke-miterlimit:10;" fill="none" stroke="#ffffff" stroke-width="40" stroke-linecap="round" stroke-linejoin="round" stroke-miterlimit="10" data-original="#0023c4" class="" opacity="1"></path></g></svg>