<svg xmlns="http://www.w3.org/2000/svg" version="1.1" xmlns:xlink="http://www.w3.org/1999/xlink" width="100" height="100" x="0" y="0" viewBox="0 0 512 512" style="enable-background:new 0 0 512 512" xml:space="preserve" class=""><g><path d="m176 140-40 40 40 40M336 140l40 40-40 40M276 100l-40 160" style="stroke-width:40;stroke-linecap:round;stroke-linejoin:round;stroke-miterlimit:10;" fill="none" stroke="#ff935c" stroke-width="40" stroke-linecap="round" stroke-linejoin="round" stroke-miterlimit="10" data-original="#ff5cf4" class="" opacity="1"></path><path d="M60 412c-22.091 0-40-17.909-40-40v-72c0-22.091 17.909-40 40-40s40 17.909 40 40v72c0 22.091-17.909 40-40 40zM452 412c-22.091 0-40-17.909-40-40v-72c0-22.091 17.909-40 40-40s40 17.909 40 40v72c0 22.091-17.909 40-40 40zM60 260v-40c0-110.457 85.543-200 196-200s196 89.543 196 200v40M252 492h120c44.183 0 80-35.817 80-80" style="stroke-width:40;stroke-linecap:round;stroke-linejoin:round;stroke-miterlimit:10;" fill="none" stroke="#7b68ee" stroke-width="40" stroke-linecap="round" stroke-linejoin="round" stroke-miterlimit="10" data-original="#0023c4" class="" opacity="1"></path></g></svg>