<svg xmlns="http://www.w3.org/2000/svg" version="1.1" xmlns:xlink="http://www.w3.org/1999/xlink" width="100" height="100" x="0" y="0" viewBox="0 0 512 512" style="enable-background:new 0 0 512 512" xml:space="preserve" class=""><g><path d="M236 452V292c0-22.091 17.908-40 40-40h-60c-22.092 0-40 17.909-40 40v160c0 22.091 17.908 40 40 40h60c-22.091 0-40-17.909-40-40z" style="" fill="#cee1f2" data-original="#cee1f2" class=""></path><path d="M96 337.997C50.373 328.723 20 288.352 20 240c0-27.6 7.201-52.8 25.199-70.801C63.2 151.199 88.4 140 116 140h20c0-66.401 53.601-120 120-120s120 53.599 120 120h20c55.2 0 96 44.8 96 100 0 27.6-7.201 52.8-25.199 70.798-13.541 13.541-31.155 23.234-50.801 27.206M336 332H176" style="stroke-width:40;stroke-linecap:round;stroke-linejoin:round;stroke-miterlimit:10;" fill="none" stroke="#ffffff" stroke-width="40" stroke-linecap="round" stroke-linejoin="round" stroke-miterlimit="10" data-original="#0023c4" class="" opacity="1"></path><path d="M296 492h-80c-22.091 0-40-17.909-40-40V292c0-22.091 17.909-40 40-40h80c22.091 0 40 17.909 40 40v160c0 22.091-17.909 40-40 40zM176 412h160" style="stroke-width:40;stroke-linecap:round;stroke-linejoin:round;stroke-miterlimit:10;" fill="none" stroke="#ffffff" stroke-width="40" stroke-linecap="round" stroke-linejoin="round" stroke-miterlimit="10" data-original="#0023c4" class="" opacity="1"></path><path d="M416 412h0M492 412h0M20 412h0M96 412h0M256 180h0M256 100h0" style="stroke-width:40;stroke-linecap:round;stroke-linejoin:round;stroke-miterlimit:10;" fill="none" stroke="#ffffff" stroke-width="40" stroke-linecap="round" stroke-linejoin="round" stroke-miterlimit="10" data-original="#ff5cf4" opacity="1"></path></g></svg>