<svg xmlns="http://www.w3.org/2000/svg" version="1.1" xmlns:xlink="http://www.w3.org/1999/xlink" width="100" height="100" x="0" y="0" viewBox="0 0 512 512" style="enable-background:new 0 0 512 512" xml:space="preserve" class=""><g><path d="M180 56h-40c-44.183 0-80 35.817-80 80v80c0 22.091-17.909 40-40 40 22.091 0 40 17.909 40 40v80c0 44.183 35.817 80 80 80h40M336 56h36c44.183 0 80 35.817 80 80v80c0 22.091 17.909 40 40 40-22.091 0-40 17.909-40 40v80c0 44.183-35.817 80-80 80h-36" style="stroke-width:40;stroke-linecap:round;stroke-linejoin:round;stroke-miterlimit:10;" fill="none" stroke="#ffffff" stroke-width="40" stroke-linecap="round" stroke-linejoin="round" stroke-miterlimit="10" data-original="#0023c4" opacity="1" class=""></path><path d="M140 136h40" style="stroke-width:40;stroke-linecap:round;stroke-linejoin:round;stroke-miterlimit:10;" fill="none" stroke="#ffffff" stroke-width="40" stroke-linecap="round" stroke-linejoin="round" stroke-miterlimit="10" data-original="#ff5cf4" opacity="1"></path><path d="M260 136h112" style="stroke-width:40;stroke-linecap:round;stroke-linejoin:round;stroke-miterlimit:10;" fill="none" stroke="#ffffff" stroke-width="40" stroke-linecap="round" stroke-linejoin="round" stroke-miterlimit="10" data-original="#0023c4" opacity="1" class=""></path><path d="M372 376h-40" style="stroke-width:40;stroke-linecap:round;stroke-linejoin:round;stroke-miterlimit:10;" fill="none" stroke="#ffffff" stroke-width="40" stroke-linecap="round" stroke-linejoin="round" stroke-miterlimit="10" data-original="#ff5cf4" opacity="1"></path><path d="M252 376H140" style="stroke-width:40;stroke-linecap:round;stroke-linejoin:round;stroke-miterlimit:10;" fill="none" stroke="#ffffff" stroke-width="40" stroke-linecap="round" stroke-linejoin="round" stroke-miterlimit="10" data-original="#0023c4" opacity="1" class=""></path><path d="M372 216h-40" style="stroke-width:40;stroke-linecap:round;stroke-linejoin:round;stroke-miterlimit:10;" fill="none" stroke="#ffffff" stroke-width="40" stroke-linecap="round" stroke-linejoin="round" stroke-miterlimit="10" data-original="#ff5cf4" opacity="1"></path><path d="M252 216H140" style="stroke-width:40;stroke-linecap:round;stroke-linejoin:round;stroke-miterlimit:10;" fill="none" stroke="#ffffff" stroke-width="40" stroke-linecap="round" stroke-linejoin="round" stroke-miterlimit="10" data-original="#0023c4" opacity="1" class=""></path><path d="M140 296h40" style="stroke-width:40;stroke-linecap:round;stroke-linejoin:round;stroke-miterlimit:10;" fill="none" stroke="#ffffff" stroke-width="40" stroke-linecap="round" stroke-linejoin="round" stroke-miterlimit="10" data-original="#ff5cf4" opacity="1"></path><path d="M260 296h112" style="stroke-width:40;stroke-linecap:round;stroke-linejoin:round;stroke-miterlimit:10;" fill="none" stroke="#ffffff" stroke-width="40" stroke-linecap="round" stroke-linejoin="round" stroke-miterlimit="10" data-original="#0023c4" opacity="1" class=""></path></g></svg>