<svg xmlns="http://www.w3.org/2000/svg" version="1.1" xmlns:xlink="http://www.w3.org/1999/xlink" width="100" height="100" x="0" y="0" viewBox="0 0 512 512" style="enable-background:new 0 0 512 512" xml:space="preserve" class=""><g><path d="M80 220c0-35.748 19.446-66.018 51.797-76.274 13.619-4.317 23.931-15.629 26.996-29.584 9.679-44.072 43.585-79.062 87.047-90.313A117.586 117.586 0 0 0 216 20c-57.397 0-105.382 40.296-117.207 94.142-3.065 13.955-13.376 25.267-26.996 29.584C39.446 153.982 20 184.252 20 220c0 44.182 31.818 80 76 80h60c-44.182 0-76-35.818-76-80z" style="" fill="#cee1f2" data-original="#cee1f2"></path><path d="M376 412v40c0 22.091-17.909 40-40 40H176c-22.091 0-40-17.909-40-40v-40M336 300h80c44.182 0 76-35.818 76-80 0-36.099-19.908-66.611-52.752-76.57a40.041 40.041 0 0 1-26.684-26.697C402.599 83.897 372.09 60 336 60c-3.03 0-6.008.197-8.933.564a40.02 40.02 0 0 1-31.72-9.938C274.253 31.684 246.601 20 216 20c-57.397 0-105.382 40.296-117.207 94.142-3.065 13.955-13.376 25.267-26.996 29.585C39.446 153.982 20 184.252 20 220c0 44.182 31.818 80 76 80h80" style="stroke-width:40;stroke-linecap:round;stroke-linejoin:round;stroke-miterlimit:10;" fill="none" stroke="#7b68ee" stroke-width="40" stroke-linecap="round" stroke-linejoin="round" stroke-miterlimit="10" data-original="#0023c4" opacity="1" class=""></path><path d="M256.004 172v240M216.004 372l40 40 40-40" style="stroke-width:40;stroke-linecap:round;stroke-linejoin:round;stroke-miterlimit:10;" fill="none" stroke="#ff9800" stroke-width="40" stroke-linecap="round" stroke-linejoin="round" stroke-miterlimit="10" data-original="#ff5cf4" opacity="1"></path></g></svg>