<svg xmlns="http://www.w3.org/2000/svg" version="1.1" xmlns:xlink="http://www.w3.org/1999/xlink" width="100" height="100" x="0" y="0" viewBox="0 0 512 512" style="enable-background:new 0 0 512 512" xml:space="preserve" class=""><g><path d="M236 420c0-9.935-5.439-19.09-14.198-23.779-72.477-38.793-118.37-120.733-102.752-211.648 13.529-78.756 75.602-143.727 153.824-160.064a215.935 215.935 0 0 1 12.925-2.284c-23.244-3.473-47.789-2.965-72.925 2.284C134.652 40.847 72.579 105.817 59.05 184.574c-15.631 90.993 30.354 172.995 102.938 211.747C170.637 400.939 176 409.985 176 419.79v.21c0 44.183 35.817 72 80 72 10.613 0 20.733-1.621 30-4.672-29.313-9.651-50-33.758-50-67.328z" style="" fill="#cee1f2" data-original="#cee1f2"></path><path d="m176 180-40 40 40 40M336 180l40 40-40 40M276 140l-40 160" style="stroke-width:40;stroke-linecap:round;stroke-linejoin:round;stroke-miterlimit:10;" fill="none" stroke="#ff9800" stroke-width="40" stroke-linecap="round" stroke-linejoin="round" stroke-miterlimit="10" data-original="#ff5cf4" opacity="1" class=""></path><path d="m20 20 40 20M452 40l40-20M20 416l40-20M452 396l40 20M456 220C456 95.461 342.168-2.493 212.874 24.51 134.652 40.846 72.579 105.817 59.05 184.574 43.425 275.528 89.365 357.5 161.896 396.272c8.667 4.633 14.104 13.69 14.104 23.518v.21c0 44.183 35.817 72 80 72h0c44.183 0 80-27.817 80-72v-.21c0-9.838 5.428-18.88 14.104-23.518C413.073 362.611 456 296.39 456 220z" style="stroke-width:40;stroke-linecap:round;stroke-linejoin:round;stroke-miterlimit:10;" fill="none" stroke="#7b68ee" stroke-width="40" stroke-linecap="round" stroke-linejoin="round" stroke-miterlimit="10" data-original="#0023c4" class="" opacity="1"></path></g></svg>