<svg xmlns="http://www.w3.org/2000/svg" version="1.1" xmlns:xlink="http://www.w3.org/1999/xlink" width="100" height="100" x="0" y="0" viewBox="0 0 512 512" style="enable-background:new 0 0 512 512" xml:space="preserve" class=""><g><path d="M236 336c0-33.57 20.687-62.292 50-74.163A79.746 79.746 0 0 0 256 256c-44.183 0-80 35.817-80 80 0 22.091 17.909 40 40 40h60c-22.091 0-40-17.909-40-40z" style="" fill="#cee1f2" data-original="#cee1f2" class=""></path><path d="M296 376h-80c-22.091 0-40-17.909-40-40 0-44.183 35.817-80 80-80s80 35.817 80 80c0 22.091-17.909 40-40 40z" style="stroke-width:40;stroke-linecap:round;stroke-linejoin:round;stroke-miterlimit:10;" fill="none" stroke="#7b68ee" stroke-width="40" stroke-linecap="round" stroke-linejoin="round" stroke-miterlimit="10" data-original="#0023c4" class="" opacity="1"></path><circle cx="256" cy="176" r="40" style="stroke-width:40;stroke-linecap:round;stroke-linejoin:round;stroke-miterlimit:10;" fill="none" stroke="#7b68ee" stroke-width="40" stroke-linecap="round" stroke-linejoin="round" stroke-miterlimit="10" data-original="#0023c4" class="" opacity="1"></circle><path d="M412 452h80M452 412v80" style="stroke-width:40;stroke-linecap:round;stroke-linejoin:round;stroke-miterlimit:10;" fill="none" stroke="#ff9800" stroke-width="40" stroke-linecap="round" stroke-linejoin="round" stroke-miterlimit="10" data-original="#ff5cf4" class="" opacity="1"></path><path d="M339.974 476.899C313.837 486.662 285.542 492 256 492 123.452 492 20 388.548 20 256S123.452 20 256 20s236 103.452 236 236c0 29.542-5.338 57.837-15.101 83.974" style="stroke-width:40;stroke-linecap:round;stroke-linejoin:round;stroke-miterlimit:10;" fill="none" stroke="#7b68ee" stroke-width="40" stroke-linecap="round" stroke-linejoin="round" stroke-miterlimit="10" data-original="#0023c4" class="" opacity="1"></path></g></svg>